<?xml version="1.0" encoding="UTF-8"?>
<svg xmlns="http://www.w3.org/2000/svg" xmlns:xlink="http://www.w3.org/1999/xlink" width="40px" height="40px" viewBox="0 0 40 23" version="1.1">
<g id="surface1">
<path style=" stroke:none;fill-rule:nonzero;fill:rgb(30.588236%,52.156866%,77.254903%);fill-opacity:1;" d="M 22.511719 1.496094 C 22.8125 1.730469 23.097656 1.984375 23.375 2.242188 C 23.453125 2.308594 23.527344 2.378906 23.605469 2.449219 C 24.007812 2.828125 24.007812 2.828125 24.15625 2.988281 C 24.15625 3.042969 24.15625 3.097656 24.15625 3.15625 C 24.238281 3.117188 24.316406 3.078125 24.398438 3.035156 C 26.121094 2.222656 28.058594 2.019531 29.921875 2.558594 C 30.019531 2.589844 30.117188 2.625 30.214844 2.65625 C 30.308594 2.6875 30.398438 2.714844 30.492188 2.746094 C 32.117188 3.328125 33.324219 4.503906 34.070312 5.988281 C 34.480469 6.929688 34.621094 7.953125 34.71875 8.96875 C 34.839844 9.011719 34.839844 9.011719 34.964844 9.054688 C 36.921875 9.769531 38.59375 10.917969 39.480469 12.785156 C 40.285156 14.679688 40.222656 16.800781 39.417969 18.679688 C 38.644531 20.390625 37.476562 21.671875 35.65625 22.398438 C 34.371094 22.839844 33.058594 23.011719 31.699219 23.011719 C 31.585938 23.011719 31.476562 23.011719 31.359375 23.015625 C 31.050781 23.015625 30.742188 23.015625 30.433594 23.015625 C 30.101562 23.015625 29.769531 23.015625 29.433594 23.019531 C 28.628906 23.019531 27.828125 23.019531 27.023438 23.023438 C 26.792969 23.023438 26.566406 23.023438 26.339844 23.023438 C 24.925781 23.027344 23.511719 23.027344 22.097656 23.027344 C 21.769531 23.027344 21.445312 23.027344 21.117188 23.027344 C 21.035156 23.027344 20.953125 23.027344 20.871094 23.027344 C 19.554688 23.03125 18.238281 23.03125 16.921875 23.035156 C 15.570312 23.039062 14.214844 23.042969 12.863281 23.042969 C 12.101562 23.042969 11.34375 23.042969 10.585938 23.046875 C 9.9375 23.046875 9.292969 23.050781 8.644531 23.046875 C 8.316406 23.046875 7.988281 23.046875 7.65625 23.050781 C 6.34375 23.058594 5.128906 23.066406 3.894531 22.585938 C 3.820312 22.554688 3.742188 22.527344 3.664062 22.496094 C 3.496094 22.433594 3.335938 22.359375 3.175781 22.277344 C 3.09375 22.238281 3.09375 22.238281 3.007812 22.195312 C 1.6875 21.515625 0.761719 20.453125 0.257812 19.097656 C 0.0117188 18.300781 -0.0429688 17.539062 -0.03125 16.710938 C -0.03125 16.652344 -0.03125 16.59375 -0.03125 16.535156 C -0.0117188 14.265625 0.589844 12.117188 2.164062 10.378906 C 2.203125 10.332031 2.242188 10.28125 2.28125 10.230469 C 3.625 8.5625 5.96875 7.761719 8.050781 7.390625 C 8.070312 7.285156 8.089844 7.179688 8.109375 7.074219 C 8.53125 4.859375 9.449219 2.902344 11.429688 1.566406 C 14.664062 -0.417969 19.335938 -0.773438 22.511719 1.496094 Z M 22.511719 1.496094 "/>
<path style=" stroke:none;fill-rule:nonzero;fill:rgb(98.823529%,99.215686%,99.607843%);fill-opacity:1;" d="M 18.425781 1.628906 C 18.585938 1.628906 18.585938 1.628906 18.746094 1.625 C 19.40625 1.628906 19.980469 1.707031 20.605469 1.910156 C 20.757812 1.957031 20.757812 1.957031 20.910156 2.007812 C 22.167969 2.46875 23.867188 3.265625 24.503906 4.484375 C 24.796875 4.398438 25.0625 4.300781 25.332031 4.15625 C 26.710938 3.492188 28.398438 3.597656 29.835938 4.023438 C 31.574219 4.585938 32.726562 5.617188 33.546875 7.164062 C 33.710938 7.488281 33.8125 7.773438 33.851562 8.136719 C 33.769531 8.066406 33.683594 7.996094 33.597656 7.925781 C 33.480469 7.828125 33.363281 7.734375 33.246094 7.640625 C 33.160156 7.566406 33.160156 7.566406 33.074219 7.492188 C 31.59375 6.316406 29.738281 6.078125 27.878906 6.226562 C 27.125 6.328125 26.4375 6.570312 25.800781 6.976562 C 25.738281 6.90625 25.675781 6.835938 25.609375 6.765625 C 24.253906 5.296875 22.480469 4.222656 20.394531 4.050781 C 20.183594 4.042969 19.96875 4.042969 19.757812 4.042969 C 19.679688 4.042969 19.601562 4.042969 19.519531 4.042969 C 17.28125 4.082031 15.125 4.609375 13.417969 6.0625 C 13.359375 6.109375 13.300781 6.160156 13.238281 6.210938 C 11.871094 7.421875 11.386719 9.09375 11.082031 10.792969 C 11 10.8125 10.914062 10.832031 10.828125 10.847656 C 9.054688 11.246094 7.523438 11.855469 6.148438 13.035156 C 6.09375 13.078125 6.039062 13.125 5.984375 13.167969 C 4.773438 14.222656 4.089844 15.839844 3.808594 17.355469 C 3.792969 17.421875 3.78125 17.492188 3.765625 17.566406 C 3.632812 18.238281 3.617188 18.890625 3.625 19.574219 C 3.625 19.679688 3.628906 19.789062 3.628906 19.898438 C 3.628906 20.15625 3.632812 20.414062 3.636719 20.675781 C 2.640625 19.777344 2.335938 18.46875 2.292969 17.203125 C 2.261719 14.808594 2.984375 12.5 4.726562 10.734375 C 5.707031 9.84375 6.84375 9.222656 8.117188 8.804688 C 8.191406 8.78125 8.265625 8.757812 8.34375 8.734375 C 8.851562 8.574219 9.339844 8.5 9.871094 8.46875 C 9.863281 8.371094 9.855469 8.273438 9.847656 8.171875 C 9.851562 6.570312 10.796875 4.984375 11.910156 3.851562 C 12.988281 2.851562 14.304688 2.230469 15.757812 1.910156 C 15.855469 1.886719 15.953125 1.859375 16.054688 1.835938 C 16.839844 1.660156 17.617188 1.636719 18.425781 1.628906 Z M 18.425781 1.628906 "/>
</g>
</svg>
